<svg width="43" height="42" viewBox="0 0 43 42" fill="none" xmlns="http://www.w3.org/2000/svg">
<rect x="0.977417" y="0.497559" width="41.1973" height="41.1973" rx="20.5987" fill="white"/>
<path d="M23.2545 14.1348C22.3187 14.1348 21.4212 14.5065 20.7595 15.1682C20.0978 15.83 19.726 16.7274 19.726 17.6632V19.6277H17.8378C17.743 19.6277 17.6661 19.7046 17.6661 19.7994V22.3933C17.6661 22.4881 17.743 22.565 17.8378 22.565H19.726V27.8863C19.726 27.9811 19.8029 28.0579 19.8977 28.0579H22.4916C22.5864 28.0579 22.6632 27.9811 22.6632 27.8863V22.565H24.5682C24.6469 22.565 24.7156 22.5114 24.7347 22.4349L25.3832 19.841C25.4103 19.7327 25.3283 19.6277 25.2166 19.6277H22.6632V17.6632C22.6632 17.5064 22.7255 17.356 22.8364 17.2452C22.9473 17.1343 23.0977 17.072 23.2545 17.072H25.2381C25.3329 17.072 25.4097 16.9951 25.4097 16.9003V14.3064C25.4097 14.2116 25.3329 14.1348 25.2381 14.1348H23.2545Z" fill="black"/>
</svg>
