<svg width="42" height="42" viewBox="0 0 42 42" fill="none" xmlns="http://www.w3.org/2000/svg">
<rect x="0.484741" y="0.497559" width="41.1973" height="41.1973" rx="20.5987" fill="white"/>
<path d="M21.0834 18.6169C19.7141 18.6169 18.604 19.727 18.604 21.0964C18.604 22.4657 19.7141 23.5758 21.0834 23.5758C22.4528 23.5758 23.5629 22.4657 23.5629 21.0964C23.5629 19.727 22.4528 18.6169 21.0834 18.6169Z" fill="black"/>
<path fill-rule="evenodd" clip-rule="evenodd" d="M17.0931 14.2923C19.7237 13.9983 22.4432 13.9983 25.0739 14.2923C26.5222 14.4542 27.6903 15.5953 27.8603 17.0487C28.1749 19.738 28.1749 22.4547 27.8603 25.144C27.6903 26.5974 26.5222 27.7386 25.0739 27.9004C22.4432 28.1944 19.7237 28.1944 17.0931 27.9004C15.6447 27.7386 14.4766 26.5974 14.3066 25.144C13.992 22.4547 13.992 19.738 14.3066 17.0487C14.4766 15.5953 15.6447 14.4542 17.0931 14.2923ZM24.898 16.5189C24.4767 16.5189 24.1351 16.8604 24.1351 17.2818C24.1351 17.7031 24.4767 18.0447 24.898 18.0447C25.3194 18.0447 25.6609 17.7031 25.6609 17.2818C25.6609 16.8604 25.3194 16.5189 24.898 16.5189ZM17.4596 21.0964C17.4596 19.095 19.0821 17.4725 21.0834 17.4725C23.0848 17.4725 24.7073 19.095 24.7073 21.0964C24.7073 23.0977 23.0848 24.7202 21.0834 24.7202C19.0821 24.7202 17.4596 23.0977 17.4596 21.0964Z" fill="black"/>
</svg>
