<svg width="42" height="42" viewBox="0 0 42 42" fill="none" xmlns="http://www.w3.org/2000/svg">
<rect x="0.470154" y="0.497559" width="41.1973" height="41.1973" rx="20.5987" fill="#FFC103"/>
<path d="M15.5377 13.3721C14.6423 13.3721 13.9165 14.0979 13.9165 14.9933C13.9165 15.8886 14.6423 16.6145 15.5377 16.6145C16.4331 16.6145 17.1589 15.8886 17.1589 14.9933C17.1589 14.0979 16.4331 13.3721 15.5377 13.3721Z" fill="black"/>
<path d="M14.0119 17.9496C13.9592 17.9496 13.9165 17.9922 13.9165 18.0449V27.9628C13.9165 28.0155 13.9592 28.0582 14.0119 28.0582H17.0635C17.1162 28.0582 17.1589 28.0155 17.1589 27.9628V18.0449C17.1589 17.9922 17.1162 17.9496 17.0635 17.9496H14.0119Z" fill="black"/>
<path d="M18.9708 17.9496C18.9181 17.9496 18.8754 17.9922 18.8754 18.0449V27.9628C18.8754 28.0155 18.9181 28.0582 18.9708 28.0582H22.0225C22.0751 28.0582 22.1178 28.0155 22.1178 27.9628V22.6224C22.1178 22.243 22.2685 21.8792 22.5368 21.6109C22.8051 21.3426 23.1689 21.1919 23.5483 21.1919C23.9277 21.1919 24.2915 21.3426 24.5598 21.6109C24.828 21.8792 24.9788 22.243 24.9788 22.6224V27.9628C24.9788 28.0155 25.0215 28.0582 25.0741 28.0582H28.1258C28.1784 28.0582 28.2211 28.0155 28.2211 27.9628V21.3867C28.2211 19.5353 26.6109 18.0869 24.7688 18.2543C24.2007 18.306 23.639 18.4472 23.1146 18.672L22.1178 19.0992V18.0449C22.1178 17.9922 22.0751 17.9496 22.0225 17.9496H18.9708Z" fill="black"/>
</svg>
