<svg width="42" height="42" viewBox="0 0 42 42" fill="none" xmlns="http://www.w3.org/2000/svg">
<rect x="-0.00799561" y="0.497559" width="41.1973" height="41.1973" rx="20.5987" fill="white"/>
<path d="M28.0747 16.6919C28.1189 16.6302 28.0536 16.5507 27.9829 16.5781C27.4804 16.7729 26.9552 16.9043 26.4194 16.9691C27.0159 16.6127 27.4763 16.0702 27.7315 15.4279C27.7575 15.3625 27.6861 15.3041 27.6244 15.3381C27.07 15.6443 26.4721 15.8648 25.851 15.9918C25.825 15.9971 25.7982 15.9882 25.7799 15.969C25.3138 15.4771 24.7002 15.1497 24.0313 15.0365C23.3484 14.921 22.6464 15.0354 22.0355 15.3618C21.4246 15.6882 20.9393 16.2081 20.6558 16.84C20.3862 17.4409 20.3134 18.1106 20.4464 18.7539C20.4567 18.8038 20.4176 18.8509 20.3668 18.8477C19.1583 18.7727 17.9775 18.4512 16.8972 17.9028C15.8197 17.3557 14.8655 16.5947 14.0927 15.6666C14.0584 15.6254 13.9934 15.6307 13.9685 15.6781C13.728 16.1344 13.6021 16.6429 13.6025 17.1598C13.6015 17.6743 13.7277 18.1811 13.97 18.635C14.2122 19.0888 14.563 19.4758 14.991 19.7613C14.5371 19.749 14.0921 19.6368 13.6873 19.4333C13.6352 19.4071 13.5726 19.4445 13.5753 19.5028C13.6069 20.1812 13.8559 20.8623 14.287 21.3848C14.7458 21.9409 15.3825 22.3214 16.0896 22.4621C15.8174 22.5449 15.5348 22.5886 15.2503 22.5918C15.0955 22.5899 14.941 22.5785 14.7877 22.5576C14.7308 22.5498 14.6844 22.6038 14.7043 22.6576C14.9152 23.2279 15.2877 23.7255 15.7776 24.0887C16.3013 24.477 16.933 24.6925 17.5849 24.705C16.4841 25.5711 15.1251 26.0438 13.7245 26.0478C13.5806 26.0482 13.4367 26.0436 13.2932 26.0338C13.2124 26.0283 13.1752 26.136 13.2449 26.1774C14.6095 26.9873 16.1693 27.4153 17.7603 27.4134C18.935 27.4256 20.1003 27.2036 21.1882 26.7604C22.2761 26.3172 23.2648 25.6616 24.0965 24.8321C24.9282 24.0025 25.5863 23.0155 26.0323 21.9287C26.4783 20.842 26.7032 19.6772 26.6941 18.5025V18.1365C26.6941 18.1124 26.7055 18.0897 26.7247 18.0752C27.2421 17.6845 27.6972 17.218 28.0747 16.6919Z" fill="black"/>
</svg>
